<svg width="154" height="42" viewBox="0 0 154 42" fill="none" xmlns="http://www.w3.org/2000/svg">
<path d="M4.33101 1.59994C4.67579 1.43107 5.09006 1.49687 5.36489 1.76437L21.255 17.2318C21.5167 17.4866 21.6311 17.8562 21.559 18.2136L20.3311 24.2935C20.24 24.7443 20.0166 25.158 19.6895 25.4823L6.78047 38.2743C5.7446 39.3008 4.07035 39.2983 3.03747 38.2688C2.25787 37.4917 2.04276 36.3148 2.49734 35.3137L6.65605 26.1565C6.99281 25.415 7.64628 24.8635 8.43568 24.6544L17.4214 22.2737C17.7341 22.1908 18.0046 21.9942 18.1792 21.7227L19.2081 20.1228C19.4383 19.7648 19.1801 19.2947 18.7534 19.2947H9.85021C9.40904 19.2946 9.00559 19.0465 8.8079 18.6535L1.3335 3.79284C1.17239 3.47248 1.30392 3.08264 1.62663 2.92451L4.33101 1.59994ZM39.3919 1.76463C39.6668 1.49712 40.081 1.43107 40.4258 1.59994L43.1299 2.92477C43.4526 3.08291 43.5845 3.47274 43.4233 3.79311L35.9489 18.6535C35.7512 19.0465 35.3478 19.2949 34.9066 19.2949H26.0034C25.5767 19.2949 25.3185 19.7651 25.5487 20.1231L26.5776 21.7229C26.7522 21.9944 27.0227 22.1911 27.3355 22.274L36.3211 24.6547C37.1105 24.8638 37.764 25.4153 38.1008 26.1568L42.2595 35.3137C42.7141 36.3148 42.499 37.4919 41.7193 38.2691C40.6865 39.2985 39.0122 39.3008 37.9763 38.2743L25.0674 25.4825C24.7401 25.1583 24.5168 24.7443 24.4257 24.2935L23.1978 18.2139C23.1256 17.8564 23.2401 17.4869 23.5018 17.2321L39.3919 1.76463Z" fill="url(#paint0_linear_2_99)"/>
<path d="M140.619 29.4205V14.3685H143.388L144.176 17.0613V29.4205H140.619ZM150.273 29.4205V21.1895C150.273 19.4874 150.044 18.3146 149.587 17.671C149.138 17.019 148.448 16.693 147.517 16.693C146.551 16.693 145.734 17.0656 145.065 17.8108C144.396 18.556 144.062 19.5128 144.062 20.6814L142.334 19.7923C142.334 18.4967 142.935 17.2476 144.138 16.0452C145.349 14.8342 146.915 14.2288 148.838 14.2288C150.692 14.2288 151.988 14.8554 152.724 16.1087C153.47 17.362 153.842 19.0429 153.842 21.1514V29.4205H150.273Z" fill="#FFFFFF"/>
<path d="M134.028 29.4211V14.3563H137.61V29.4211H134.028ZM134.028 9.99951H137.61V12.6924H134.028V9.99951Z" fill="#FFFFFF"/>
<path d="M122.767 29.5725C121.904 29.5725 121.133 29.5005 120.456 29.3565C119.778 29.2041 119.194 28.9543 118.703 28.6071C118.22 28.2599 117.852 27.7899 117.598 27.1972C117.344 26.5959 117.217 25.8465 117.217 24.9489C117.217 24.0936 117.339 23.3781 117.585 22.8022C117.83 22.2264 118.186 21.7691 118.652 21.4304C119.126 21.0832 119.706 20.8334 120.392 20.681C121.078 20.5285 121.857 20.4523 122.729 20.4523H127.556V19.7664C127.556 19.0043 127.421 18.3946 127.15 17.9373C126.887 17.48 126.51 17.1498 126.019 16.9465C125.528 16.7348 124.939 16.629 124.254 16.629C123.695 16.629 123.182 16.7221 122.717 16.9084C122.251 17.0947 121.857 17.3996 121.535 17.823C121.222 18.2379 121.002 18.801 120.875 19.5124L117.382 18.5597C117.543 17.7552 117.83 17.0778 118.245 16.5274C118.669 15.9685 119.185 15.5239 119.795 15.1936C120.405 14.8549 121.086 14.6093 121.84 14.4569C122.594 14.296 123.394 14.2156 124.241 14.2156C125.731 14.2156 126.989 14.4061 128.013 14.7872C129.038 15.1682 129.813 15.7779 130.338 16.6163C130.871 17.4462 131.138 18.5555 131.138 19.9442V29.42H128.166L127.861 27.6163C127.734 27.845 127.526 28.0736 127.239 28.3022C126.951 28.5224 126.586 28.7299 126.146 28.9247C125.714 29.1194 125.215 29.2761 124.647 29.3946C124.08 29.5132 123.453 29.5725 122.767 29.5725ZM123.568 27.2607C124.228 27.2607 124.825 27.1845 125.359 27.032C125.892 26.8711 126.341 26.6637 126.705 26.4096C127.078 26.1556 127.344 25.8888 127.505 25.6094V22.4212H123.568C123.178 22.4212 122.814 22.455 122.475 22.5228C122.145 22.5821 121.857 22.6964 121.611 22.8657C121.366 23.0351 121.175 23.2807 121.04 23.6025C120.904 23.9158 120.837 24.3222 120.837 24.8219C120.837 25.3215 120.904 25.7322 121.04 26.054C121.175 26.3673 121.366 26.6129 121.611 26.7907C121.866 26.9601 122.158 27.0828 122.488 27.1591C122.818 27.2268 123.178 27.2607 123.568 27.2607Z" fill="#FFFFFF"/>
<path d="M111.204 29.4209V9.47852H114.773V29.4209H111.204Z" fill="#FFFFFF"/>
<path d="M94.6484 35.0476V14.3685H97.4175L98.205 16.82V35.0476H94.6484ZM102.994 29.5094C101.266 29.5094 99.7759 29.0987 98.5226 28.2773C97.2693 27.4475 96.6427 26.5498 96.6427 25.5845L98.205 23.9205C98.205 24.7842 98.5565 25.5252 99.2593 26.1434C99.9706 26.7615 100.805 27.0706 101.762 27.0706C102.795 27.0706 103.595 26.715 104.162 26.0036C104.738 25.2839 105.026 23.9078 105.026 21.8754C105.026 19.86 104.738 18.4924 104.162 17.7727C103.595 17.0529 102.795 16.693 101.762 16.693C100.805 16.693 99.9706 17.0021 99.2593 17.6202C98.5565 18.2384 98.205 18.9709 98.205 19.8177L96.6427 18.1791C96.6427 17.2138 97.2693 16.3161 98.5226 15.4863C99.7759 14.6479 101.266 14.2288 102.994 14.2288C104.941 14.2288 106.368 14.8893 107.274 16.2103C108.18 17.5313 108.633 19.4155 108.633 21.8627C108.633 24.3016 108.18 26.1857 107.274 27.5152C106.368 28.8447 104.941 29.5094 102.994 29.5094Z" fill="#FFFFFF"/>
<path d="M78.0185 29.4208L82.9342 21.8884L78.2091 14.3688H82.261L85.5763 20.4277L88.8026 14.3688H92.8165L88.0659 21.8884L92.9308 29.4208H88.8788L85.4239 23.3492L82.0324 29.4208H78.0185Z" fill="#FFFFFF"/>
<path d="M72.3037 29.4211V14.3563H75.8857V29.4211H72.3037ZM72.3037 9.99951H75.8857V12.6924H72.3037V9.99951Z" fill="#FFFFFF"/>
<path d="M61.0429 29.5725C60.1792 29.5725 59.4086 29.5005 58.7311 29.3565C58.0537 29.2041 57.4694 28.9543 56.9782 28.6071C56.4955 28.2599 56.1272 27.7899 55.8731 27.1972C55.6191 26.5959 55.4921 25.8465 55.4921 24.9489C55.4921 24.0936 55.6149 23.3781 55.8604 22.8022C56.106 22.2264 56.4617 21.7691 56.9274 21.4304C57.4016 21.0832 57.9817 20.8334 58.6676 20.681C59.3535 20.5285 60.1326 20.4523 61.0048 20.4523H65.8316V19.7664C65.8316 19.0043 65.6961 18.3946 65.4252 17.9373C65.1626 17.48 64.7858 17.1498 64.2947 16.9465C63.8035 16.7348 63.215 16.629 62.5291 16.629C61.9702 16.629 61.4579 16.7221 60.9921 16.9084C60.5264 17.0947 60.1326 17.3996 59.8108 17.823C59.4975 18.2379 59.2773 18.801 59.1503 19.5124L55.6572 18.5597C55.8181 17.7552 56.106 17.0778 56.521 16.5274C56.9444 15.9685 57.4609 15.5239 58.0706 15.1936C58.6803 14.8549 59.362 14.6093 60.1157 14.4569C60.8693 14.296 61.6696 14.2156 62.5164 14.2156C64.0067 14.2156 65.2643 14.4061 66.2889 14.7872C67.3135 15.1682 68.0884 15.7779 68.6134 16.6163C69.1469 17.4462 69.4136 18.5555 69.4136 19.9442V29.42H66.4413L66.1365 27.6163C66.0094 27.845 65.802 28.0736 65.5141 28.3022C65.2262 28.5224 64.862 28.7299 64.4217 28.9247C63.9898 29.1194 63.4902 29.2761 62.9228 29.3946C62.3555 29.5132 61.7288 29.5725 61.0429 29.5725ZM61.8431 27.2607C62.5037 27.2607 63.1007 27.1845 63.6341 27.032C64.1676 26.8711 64.6164 26.6637 64.9806 26.4096C65.3532 26.1556 65.6199 25.8888 65.7808 25.6094V22.4212H61.8431C61.4536 22.4212 61.0895 22.455 60.7508 22.5228C60.4205 22.5821 60.1326 22.6964 59.887 22.8657C59.6414 23.0351 59.4509 23.2807 59.3154 23.6025C59.1799 23.9158 59.1122 24.3222 59.1122 24.8219C59.1122 25.3215 59.1799 25.7322 59.3154 26.054C59.4509 26.3673 59.6414 26.6129 59.887 26.7907C60.1411 26.9601 60.4332 27.0828 60.7635 27.1591C61.0937 27.2268 61.4536 27.2607 61.8431 27.2607Z" fill="#FFFFFF"/>
<defs>
<linearGradient id="paint0_linear_2_99" x1="-11.2236" y1="1.5072" x2="32.2244" y2="52.4006" gradientUnits="userSpaceOnUse">
<stop stop-color="#FFC013"/>
<stop offset="1" stop-color="#FF6A00"/>
</linearGradient>
</defs>
</svg>
